<?xml version="1.0" encoding="utf-8"?>
<!-- Generator: Adobe Illustrator 27.5.0, SVG Export Plug-In . SVG Version: 6.00 Build 0)  -->
<svg version="1.1" id="Livello_1" xmlns="http://www.w3.org/2000/svg" xmlns:xlink="http://www.w3.org/1999/xlink" x="0px" y="0px"
	 viewBox="0 0 462.5 116.2" style="enable-background:new 0 0 462.5 116.2;" xml:space="preserve">
<style type="text/css">
	.st0{fill:#FFDD00;}
	.st1{fill:#FFFFFF;}
</style>
<g>
	<path id="Tracciato_1" class="st0" d="M462.5,40.2h-15v-9h15V40.2z"/>
	<path id="Tracciato_2" class="st0" d="M462.5,72.9h-15v-9h15C462.5,63.9,462.5,72.9,462.5,72.9z"/>
	<path id="Tracciato_3" class="st0" d="M462.5,89.1h-15v-9h15V89.1z"/>
	<path id="Tracciato_4" class="st1" d="M146.5,0h2.3v116.2h-2.3V0z"/>
	<path id="Tracciato_5" class="st1" d="M71.7,28.5L20,80.9h34.1l17.2-17.5l17.3,17.5h19.5l9.6-26.9H96.9L71.7,28.5L71.7,28.5
		L71.7,28.5z M100.3,45.7h29.6L114,89.2H85.2l-13.8-14l-13.8,14H0l71.7-72.5L100.3,45.7L100.3,45.7z"/>
	<path id="Tracciato_6" class="st1" d="M173.9,62.8h13.7v-2.3c0.1-2.4-0.4-4.7-1.5-6.8c-1.1-1.8-3-2.9-5.1-2.8
		c-1.6-0.1-3.1,0.5-4.3,1.6c-1.1,1.1-1.9,2.5-2.2,4.1c-0.4,1.7-0.7,3.5-0.6,5.3L173.9,62.8L173.9,62.8L173.9,62.8z M196.3,68.7
		h-22.3v2.5c0,2,0.1,4,0.4,6c0.2,1.8,0.9,3.5,2,5c1.1,1.4,2.9,2.2,4.7,2.1c1.7,0.1,3.3-0.6,4.5-1.9c1-1.2,1.6-2.6,1.9-4.1
		c0.3-1.2,0.4-2.4,0.4-3.6h8.1c0,4.8-1.4,8.6-4,11.3c-2.6,2.7-6.3,4.1-11,4.2c-2.5,0.1-4.9-0.4-7.2-1.3c-2.4-0.9-4.4-3-6-6.2
		c-1.6-3.2-2.5-8-2.5-14.5c-0.1-3.7,0.3-7.4,1.1-11c0.7-3.3,2.3-6.3,4.6-8.7c2.3-2.3,5.6-3.4,10.1-3.5c3.9,0,7,0.8,9.2,2.3
		c2.3,1.6,3.9,3.9,4.6,6.6c0.9,3.4,1.4,6.8,1.3,10.3L196.3,68.7L196.3,68.7L196.3,68.7z"/>
	<path id="Tracciato_7" class="st1" d="M205,89V46h8.1v5h0.2c1.1-1.9,2.6-3.4,4.4-4.5c1.8-1.1,3.8-1.6,5.8-1.6c3,0,5.3,0.7,6.8,1.9
		c1.5,1.2,2.6,2.8,3.1,4.6c1.1-1.9,2.6-3.6,4.4-4.8c1.9-1.2,4.2-1.8,6.4-1.7c2.7-0.2,5.4,0.8,7.5,2.6c1.9,1.8,2.9,4.7,2.9,8.8V89
		h-8.6V59.5c0-2.8-0.4-4.8-1.3-6c-0.9-1.2-2.4-1.9-3.9-1.8c-1.8,0-3.5,0.8-4.7,2.1c-1.3,1.4-2,3.5-2.1,6.3V89h-8.6V59.5
		c0-2.8-0.4-4.8-1.3-6c-0.9-1.2-2.4-1.9-4-1.8c-1.8,0-3.5,0.8-4.7,2.1c-1.3,1.4-2,3.5-2.1,6.3V89L205,89L205,89z"/>
	<path id="Tracciato_8" class="st1" d="M263.1,89V46h8.1v5h0.2c1.1-1.9,2.6-3.4,4.4-4.5c1.8-1.1,3.8-1.6,5.9-1.6
		c3,0,5.3,0.7,6.8,1.9c1.5,1.2,2.6,2.8,3.1,4.6c1.1-1.9,2.6-3.6,4.4-4.8c1.9-1.2,4.2-1.8,6.4-1.7c2.7-0.2,5.4,0.8,7.5,2.6
		c1.9,1.8,2.9,4.7,2.9,8.8V89h-8.6V59.5c0-2.8-0.4-4.8-1.3-6c-0.9-1.2-2.4-1.9-3.9-1.8c-1.8,0-3.5,0.8-4.7,2.1
		c-1.3,1.4-2,3.5-2.1,6.3V89h-8.6V59.5c0-2.8-0.4-4.8-1.3-6c-0.9-1.2-2.4-1.9-4-1.8c-1.8,0-3.5,0.8-4.7,2.1c-1.3,1.4-2,3.5-2.1,6.3
		V89L263.1,89L263.1,89z"/>
	<path id="Tracciato_9" class="st1" d="M329.7,62.8h13.8v-2.3c0.1-2.4-0.4-4.7-1.5-6.8c-1.1-1.8-3-2.9-5.1-2.8
		c-1.6-0.1-3.1,0.5-4.3,1.6c-1.1,1.1-1.9,2.5-2.2,4.1c-0.5,1.7-0.7,3.5-0.6,5.3L329.7,62.8L329.7,62.8L329.7,62.8z M352.1,68.7
		h-22.3v2.5c0,2,0.1,4,0.4,6c0.2,1.8,0.9,3.6,2,5c2.3,2.6,6.3,2.8,8.9,0.5c0.1-0.1,0.2-0.2,0.3-0.3c1-1.2,1.6-2.6,1.9-4.1
		c0.3-1.2,0.4-2.4,0.4-3.6h8.1c0,4.8-1.4,8.6-4,11.3c-2.6,2.7-6.3,4.1-11,4.2c-2.5,0.1-4.9-0.4-7.2-1.3c-2.4-0.9-4.4-3-6-6.2
		s-2.4-8-2.5-14.5c-0.1-3.7,0.3-7.4,1.1-11c0.7-3.3,2.3-6.3,4.6-8.7c2.3-2.3,5.6-3.4,10.1-3.5c3.9,0,7,0.8,9.2,2.3
		c2.3,1.6,3.9,3.9,4.6,6.6c0.9,3.3,1.4,6.8,1.3,10.3L352.1,68.7L352.1,68.7L352.1,68.7z"/>
	<path id="Tracciato_10" class="st1" d="M369,66.2c0,2.4,0.1,4.9,0.3,7.3c0.2,2.1,0.8,4.1,1.8,5.9c1,1.6,2.7,2.5,4.6,2.4
		c1.9,0.1,3.8-0.9,4.9-2.5c1.1-1.8,1.8-3.8,2.1-5.8c0.3-2.3,0.5-4.7,0.4-7c0-2.3-0.1-4.6-0.5-6.9c-0.2-2-0.9-3.9-2-5.6
		c-1-1.5-2.7-2.3-4.4-2.3c-2.7-0.1-5.1,1.6-5.9,4.2C369.3,59.3,368.8,62.7,369,66.2 M361.5,92.7h8.1c0,1.4,0.6,2.7,1.7,3.6
		c3,2.3,7.2,2,9.8-0.6c1.4-1.7,2.1-3.8,2-5.9v-7h-0.2c-0.8,1.8-2.2,3.4-3.9,4.4c-1.8,1-3.8,1.6-5.8,1.5c-2.9,0.1-5.7-1-7.8-3
		c-2-2.2-3.4-4.9-3.9-7.8c-0.8-3.6-1.2-7.2-1.1-10.8c-0.1-3.3,0.2-6.7,0.8-9.9c0.5-3.1,1.8-6.1,3.8-8.6c2-2.3,4.9-3.5,8.9-3.6
		c2.3,0,4.5,0.7,6.3,2c1.5,1.1,2.6,2.6,3.1,4.4h0.2V46h8.1V87c0,5.3-1.2,9.4-3.7,12.3c-2.5,2.9-6.6,4.4-12.3,4.5
		c-4.2-0.1-7.3-0.8-9.3-2.1c-1.8-1-3.2-2.6-4-4.5C361.8,95.7,361.5,94.2,361.5,92.7"/>
	<path id="Tracciato_11" class="st1" d="M400,31.4h8.6V40H400V31.4z M400,46.1h8.6v43H400V46.1L400,46.1L400,46.1z"/>
</g>
</svg>
