<svg width="140" height="48" viewBox="0 0 140 48" fill="none" xmlns="http://www.w3.org/2000/svg">
<path fill-rule="evenodd" clip-rule="evenodd" d="M0 0H48V48H0V0ZM25.9379 10.4C30.527 10.4 34.4 13.0315 34.4 18.6167C34.4 22.9778 32.1798 25.5592 28.6085 26.4901L33.9947 37.6H29.4462L24.2086 26.8391H18.2685V37.6H14.4V22.8667H25.9379C28.5725 22.8667 30.5111 21.5722 30.5111 18.6167C30.5111 15.7822 28.4887 14.3667 25.8182 14.3667H14.4V10.4H25.9379Z" fill="#003C75"/>
<path d="M64.5403 20.8H66.3835L64.4683 17.4448L63.6187 16.4224C65.2315 16.1776 66.2395 15.112 66.2395 13.5856C66.2395 11.8576 64.9291 10.72 62.8843 10.72H58.8955V20.8H60.4075V16.48H62.3659L64.5403 20.8ZM60.4075 12.0736H62.9131C64.1659 12.0736 64.6555 12.5056 64.6555 13.6C64.6555 14.7088 64.1659 15.1552 62.9131 15.1552H60.4075V12.0736Z" fill="#003C75"/>
<path d="M73.843 17.2C73.843 15.0832 72.5038 13.744 70.5742 13.744C68.587 13.744 67.1758 15.1984 67.1758 17.3584C67.1758 19.5328 68.5438 20.944 70.6462 20.944C72.0574 20.944 73.195 20.368 73.6846 19.1584L72.3598 18.6256C72.043 19.4464 71.6254 19.7056 70.6606 19.7056C69.3646 19.7056 68.7886 19.144 68.6734 17.8048H73.8286C73.843 17.5312 73.843 17.416 73.843 17.2ZM70.5886 14.9536C71.7838 14.9536 72.3166 15.4432 72.3742 16.7248H68.6878C68.8318 15.5152 69.4366 14.9536 70.5886 14.9536Z" fill="#003C75"/>
<path d="M80.0674 13.888L78.5554 18.2368L78.037 19.864L77.5474 18.2512L76.0498 13.888H74.4226L77.4322 21.6784L77.461 21.6496L77.3746 21.9376H74.869V23.248H76.3522C77.6194 23.248 78.1666 22.8304 78.5842 21.7792L81.6946 13.888H80.0674Z" fill="#003C75"/>
<path d="M86.8966 13.744C85.543 13.744 84.8086 14.4496 84.4774 15.5584V13.888H83.0086V20.8H84.4774V17.5456C84.4774 15.9472 85.2262 15.0832 86.3926 15.0832C87.3286 15.0832 87.9046 15.616 87.9046 16.6528V20.8H89.3734V16.552C89.3734 14.7232 88.5238 13.744 86.8966 13.744Z" fill="#003C75"/>
<path d="M96.7426 13.888V15.3424C96.2674 14.32 95.3747 13.744 94.1939 13.744C92.2499 13.744 91.0258 15.184 91.0258 17.344C91.0258 19.504 92.2642 20.944 94.2514 20.944C95.4035 20.944 96.2674 20.368 96.7426 19.3744V20.8H98.2115V13.888H96.7426ZM94.6547 19.6048C93.1283 19.6048 92.509 18.9568 92.509 17.344C92.509 15.7312 93.1283 15.0832 94.6547 15.0832C96.181 15.0832 96.8146 15.7312 96.8146 17.344C96.8146 18.9568 96.181 19.6048 94.6547 19.6048Z" fill="#003C75"/>
<path d="M106.609 17.2C106.609 15.0832 105.269 13.744 103.34 13.744C101.353 13.744 99.9415 15.1984 99.9415 17.3584C99.9415 19.5328 101.309 20.944 103.412 20.944C104.823 20.944 105.961 20.368 106.45 19.1584L105.125 18.6256C104.809 19.4464 104.391 19.7056 103.426 19.7056C102.13 19.7056 101.554 19.144 101.439 17.8048H106.594C106.609 17.5312 106.609 17.416 106.609 17.2ZM103.354 14.9536C104.549 14.9536 105.082 15.4432 105.14 16.7248H101.453C101.597 15.5152 102.202 14.9536 103.354 14.9536Z" fill="#003C75"/>
<path d="M111.921 13.7584C110.539 13.7584 109.992 14.7952 109.776 15.904V13.888H108.307V20.8H109.776V17.8048C109.776 16.1776 110.496 15.1264 111.806 15.1264C112.325 15.1264 112.541 15.2128 112.742 15.2992V13.8736C112.526 13.7728 112.224 13.7584 111.921 13.7584Z" fill="#003C75"/>
<path d="M116.435 20.944C118.221 20.944 119.329 20.0944 119.329 18.7408C119.329 17.632 118.624 17.0272 117.544 16.84L115.974 16.5664C115.312 16.4656 115.125 16.2208 115.125 15.7456C115.125 15.1696 115.513 14.896 116.349 14.896C117.169 14.896 117.616 15.0976 117.745 16.192L119.185 15.8464C118.926 14.392 117.904 13.744 116.291 13.744C114.664 13.744 113.641 14.5504 113.641 15.832C113.641 17.0704 114.477 17.6608 115.585 17.848L116.838 18.0784C117.659 18.2224 117.861 18.424 117.861 18.9424C117.861 19.504 117.443 19.7632 116.536 19.7632C115.571 19.7632 115.053 19.4464 114.909 18.4384L113.454 18.856C113.699 20.1232 114.793 20.944 116.435 20.944Z" fill="#003C75"/>
<path d="M65.9807 37.6H67.6511L63.7919 27.52H61.6607L57.7871 37.6H59.4431L60.4223 34.9648H65.0015L65.9807 37.6ZM60.9407 33.6112L62.1215 30.4432L62.7263 28.7008L63.3167 30.4432L64.4975 33.6112H60.9407Z" fill="#003C75"/>
<path d="M68.9606 37.6H70.4294V27.52H68.9606V37.6Z" fill="#003C75"/>
<path d="M77.5256 30.688V33.9424C77.5256 35.5408 76.7768 36.4048 75.6104 36.4048C74.6744 36.4048 74.0984 35.872 74.0984 34.8352V30.688H72.6296V34.936C72.6296 36.7648 73.4792 37.744 75.1064 37.744C76.46 37.744 77.1944 37.0384 77.5256 35.9296V37.6H78.9944V30.688H77.5256Z" fill="#003C75"/>
<path d="M90.0212 30.544C88.754 30.544 87.9188 31.192 87.5156 32.4016C87.2564 31.192 86.45 30.544 85.1252 30.544C83.7716 30.544 83.0372 31.2496 82.706 32.3584V30.688H81.2372V37.6H82.706V34.3456C82.706 32.7472 83.4548 31.8832 84.6212 31.8832C85.5572 31.8832 86.1332 32.416 86.1332 33.4528V37.6H87.602V34.7056C87.602 32.8624 88.2212 31.8832 89.5316 31.8832C90.4676 31.8832 91.0292 32.4304 91.0292 33.5104V37.6H92.498V33.424C92.498 31.552 91.6484 30.544 90.0212 30.544Z" fill="#003C75"/>
<path d="M95.4297 29.2624C96.0921 29.2624 96.4521 28.9024 96.4377 28.2688C96.4233 27.6496 96.0633 27.3184 95.4297 27.3184C94.7817 27.3184 94.4073 27.6496 94.4217 28.2688C94.4361 28.9024 94.7961 29.2624 95.4297 29.2624ZM94.6809 37.6H96.1497V30.688H94.6809V37.6Z" fill="#003C75"/>
<path d="M102.295 30.544C100.942 30.544 100.207 31.2496 99.8763 32.3584V30.688H98.4075V37.6H99.8763V34.3456C99.8763 32.7472 100.625 31.8832 101.791 31.8832C102.727 31.8832 103.303 32.416 103.303 33.4528V37.6H104.772V33.352C104.772 31.5232 103.923 30.544 102.295 30.544Z" fill="#003C75"/>
<path d="M107.706 29.2624C108.369 29.2624 108.729 28.9024 108.714 28.2688C108.7 27.6496 108.34 27.3184 107.706 27.3184C107.058 27.3184 106.684 27.6496 106.698 28.2688C106.713 28.9024 107.073 29.2624 107.706 29.2624ZM106.957 37.6H108.426V30.688H106.957V37.6Z" fill="#003C75"/>
<path d="M115.522 30.688V33.9424C115.522 35.5408 114.774 36.4048 113.607 36.4048C112.671 36.4048 112.095 35.872 112.095 34.8352V30.688H110.626V34.936C110.626 36.7648 111.476 37.744 113.103 37.744C114.457 37.744 115.191 37.0384 115.522 35.9296V37.6H116.991V30.688H115.522Z" fill="#003C75"/>
<path d="M128.018 30.544C126.751 30.544 125.916 31.192 125.512 32.4016C125.253 31.192 124.447 30.544 123.122 30.544C121.768 30.544 121.034 31.2496 120.703 32.3584V30.688H119.234V37.6H120.703V34.3456C120.703 32.7472 121.452 31.8832 122.618 31.8832C123.554 31.8832 124.13 32.416 124.13 33.4528V37.6H125.599V34.7056C125.599 32.8624 126.218 31.8832 127.528 31.8832C128.464 31.8832 129.026 32.4304 129.026 33.5104V37.6H130.495V33.424C130.495 31.552 129.645 30.544 128.018 30.544Z" fill="#003C75"/>
</svg>
